<?xml version="1.0" encoding="UTF-8" standalone="no"?>
<!-- Created with Inkscape (http://www.inkscape.org/) -->

<svg
   width="30.691628mm"
   height="30.691628mm"
   viewBox="0 0 30.691628 30.691628"
   version="1.1"
   id="svg1"
   inkscape:version="1.4 (e7c3feb1, 2024-10-09)"
   sodipodi:docname="repo_qr_code.svg"
   xmlns:inkscape="http://www.inkscape.org/namespaces/inkscape"
   xmlns:sodipodi="http://sodipodi.sourceforge.net/DTD/sodipodi-0.dtd"
   xmlns="http://www.w3.org/2000/svg"
   xmlns:svg="http://www.w3.org/2000/svg">
  <sodipodi:namedview
     id="namedview1"
     pagecolor="#505050"
     bordercolor="#eeeeee"
     borderopacity="1"
     inkscape:showpageshadow="0"
     inkscape:pageopacity="0"
     inkscape:pagecheckerboard="0"
     inkscape:deskcolor="#505050"
     inkscape:document-units="mm"
     inkscape:zoom="1.6201494"
     inkscape:cx="53.081525"
     inkscape:cy="13.270381"
     inkscape:window-width="1440"
     inkscape:window-height="792"
     inkscape:window-x="0"
     inkscape:window-y="25"
     inkscape:window-maximized="1"
     inkscape:current-layer="workshop-qr-code" />
  <defs
     id="defs1" />
  <g
     inkscape:label="Layer 1"
     inkscape:groupmode="layer"
     id="layer1"
     transform="translate(-110.06633,-149.75433)">
    <g
       inkscape:label="QR Code: https://github.com/QLS-MiCM/IntroToPython"
       id="workshop-qr-code"
       transform="matrix(0.264583,0,0,0.264583,105.833,145.521)">
      <g
         style="fill:#000000;stroke:none"
         id="g1">
        <path
           d="m 115.6,132 h -3.2 c -0.221,0 -0.4,-0.179 -0.4,-0.4 V 128 h 4 v 3.6 c 0,0.221 -0.179,0.4 -0.4,0.4 z m -8,0 h -3.2 c -0.221,0 -0.4,-0.179 -0.4,-0.4 V 124 h 3.6 c 0.221,0 0.4,-0.179 0.4,-0.4 v -3.2 c 0,-0.221 0.179,-0.4 0.4,-0.4 h 7.2 c 0.221,0 0.4,0.179 0.4,0.4 v 3.6 h -3.6 c -0.221,0 -0.4,0.179 -0.4,0.4 v 3.6 h -3.6 c -0.221,0 -0.4,0.179 -0.4,0.4 v 3.2 c 0,0.221 -0.179,0.4 -0.4,0.4 z m -8,0 h -7.2 c -0.2209,0 -0.4,-0.179 -0.4,-0.4 v -3.2 c 0,-0.221 0.1791,-0.4 0.4,-0.4 h 7.2 c 0.2209,0 0.4,0.179 0.4,0.4 v 3.2 c 0,0.221 -0.1791,0.4 -0.4,0.4 z m -24,0 h -3.2 c -0.2209,0 -0.4,-0.179 -0.4,-0.4 v -3.2 c 0,-0.221 0.1791,-0.4 0.4,-0.4 H 76 v 3.6 c 0,0.221 -0.1791,0.4 -0.4,0.4 z m -20,0 h -7.2 c -0.2209,0 -0.4,-0.179 -0.4,-0.4 v -7.2 c 0,-0.221 0.1791,-0.4 0.4,-0.4 H 52 v 3.6 c 0,0.221 0.1791,0.4 0.4,0.4 H 56 v 3.6 c 0,0.221 -0.1791,0.4 -0.4,0.4 z m -12,0 H 16.4 c -0.2209,0 -0.4,-0.179 -0.4,-0.4 v -27.2 c 0,-0.221 0.1791,-0.4 0.4,-0.4 h 27.2 c 0.2209,0 0.4,0.179 0.4,0.4 v 27.2 c 0,0.221 -0.1791,0.4 -0.4,0.4 z m 88,-4 h -3.2 c -0.221,0 -0.4,-0.179 -0.4,-0.4 v -3.2 c 0,-0.221 -0.179,-0.4 -0.4,-0.4 h -3.2 c -0.221,0 -0.4,0.179 -0.4,0.4 v 3.2 c 0,0.221 -0.179,0.4 -0.4,0.4 H 116 v -4 h 3.6 c 0.221,0 0.4,-0.179 0.4,-0.4 v -3.2 c 0,-0.221 0.179,-0.4 0.4,-0.4 h 7.2 c 0.221,0 0.4,-0.179 0.4,-0.4 V 116 h 3.6 c 0.221,0 0.4,0.179 0.4,0.4 v 11.2 c 0,0.221 -0.179,0.4 -0.4,0.4 z m -52,0 H 76 v -7.6 c 0,-0.221 -0.1791,-0.4 -0.4,-0.4 h -3.2 c -0.2209,0 -0.4,0.179 -0.4,0.4 v 3.2 c 0,0.221 -0.1791,0.4 -0.4,0.4 h -7.2 c -0.2209,0 -0.4,0.179 -0.4,0.4 v 3.2 c 0,0.221 -0.1791,0.4 -0.4,0.4 H 56 v -4 h 3.6 c 0.2209,0 0.4,-0.179 0.4,-0.4 v -3.2 c 0,-0.221 0.1791,-0.4 0.4,-0.4 h 7.2 c 0.2209,0 0.4,-0.179 0.4,-0.4 v -3.2 C 68,116.179 67.8209,116 67.6,116 H 52.4 c -0.2209,0 -0.4,0.179 -0.4,0.4 v 3.6 h -3.6 c -0.2209,0 -0.4,-0.179 -0.4,-0.4 v -7.2 c 0,-0.221 0.1791,-0.4 0.4,-0.4 h 3.2 c 0.2209,0 0.4,-0.179 0.4,-0.4 v -3.2 c 0,-0.221 0.1791,-0.4 0.4,-0.4 H 56 v 3.6 c 0,0.221 0.1791,0.4 0.4,0.4 h 3.2 c 0.2209,0 0.4,-0.179 0.4,-0.4 v -3.2 C 60,108.179 59.8209,108 59.6,108 H 56 v -3.6 c 0,-0.221 0.1791,-0.4 0.4,-0.4 H 64 v 3.6 c 0,0.221 0.1791,0.4 0.4,0.4 h 3.2 c 0.2209,0 0.4,-0.179 0.4,-0.4 v -3.2 C 68,104.179 67.8209,104 67.6,104 H 64 v -4 h 3.6 c 0.2209,0 0.4,-0.1791 0.4,-0.4 V 92 h 7.6 C 75.8209,92 76,91.8209 76,91.6 V 84.4 C 76,84.1791 76.1791,84 76.4,84 h 3.2 c 0.2209,0 0.4,0.1791 0.4,0.4 v 3.2 c 0,0.2209 0.1791,0.4 0.4,0.4 H 88 v 3.6 C 88,91.8209 87.8209,92 87.6,92 H 80.4 C 80.1791,92 80,92.1791 80,92.4 v 15.2 c 0,0.221 -0.1791,0.4 -0.4,0.4 h -3.2 c -0.2209,0 -0.4,-0.179 -0.4,-0.4 v -3.2 c 0,-0.221 -0.1791,-0.4 -0.4,-0.4 h -3.2 c -0.2209,0 -0.4,0.179 -0.4,0.4 v 11.2 c 0,0.221 0.1791,0.4 0.4,0.4 h 3.2 c 0.2209,0 0.4,-0.179 0.4,-0.4 v -3.2 c 0,-0.221 0.1791,-0.4 0.4,-0.4 h 3.2 c 0.2209,0 0.4,0.179 0.4,0.4 v 3.2 c 0,0.221 0.1791,0.4 0.4,0.4 h 3.2 c 0.2209,0 0.4,-0.179 0.4,-0.4 v -7.2 c 0,-0.221 0.1791,-0.4 0.4,-0.4 h 3.2 c 0.2209,0 0.4,0.179 0.4,0.4 v 7.2 c 0,0.221 0.1791,0.4 0.4,0.4 H 92 v 7.6 c 0,0.221 -0.1791,0.4 -0.4,0.4 h -3.2 c -0.2209,0 -0.4,-0.179 -0.4,-0.4 v -3.2 c 0,-0.221 -0.1791,-0.4 -0.4,-0.4 h -3.2 c -0.2209,0 -0.4,0.179 -0.4,0.4 v 3.2 c 0,0.221 -0.1791,0.4 -0.4,0.4 h -3.2 c -0.2209,0 -0.4,0.179 -0.4,0.4 v 3.2 c 0,0.221 -0.1791,0.4 -0.4,0.4 z M 40,127.6 V 108.4 C 40,108.179 39.8209,108 39.6,108 H 20.4 c -0.2209,0 -0.4,0.179 -0.4,0.4 v 19.2 c 0,0.221 0.1791,0.4 0.4,0.4 h 19.2 c 0.2209,0 0.4,-0.179 0.4,-0.4 z m 63.6,-3.6 h -7.2 c -0.2209,0 -0.4,-0.179 -0.4,-0.4 v -3.2 c 0,-0.221 0.1791,-0.4 0.4,-0.4 h 3.2 c 0.2209,0 0.4,-0.179 0.4,-0.4 v -3.2 c 0,-0.221 -0.1791,-0.4 -0.4,-0.4 H 92 v -12 h 3.6 c 0.2209,0 0.4,-0.179 0.4,-0.4 V 96 h 7.6 c 0.221,0 0.4,-0.1791 0.4,-0.4 v -3.2 c 0,-0.2209 0.179,-0.4 0.4,-0.4 h 3.2 c 0.221,0 0.4,0.1791 0.4,0.4 v 3.2 c 0,0.2209 0.179,0.4 0.4,0.4 h 7.2 c 0.221,0 0.4,-0.1791 0.4,-0.4 v -3.2 c 0,-0.2209 -0.179,-0.4 -0.4,-0.4 h -3.2 c -0.221,0 -0.4,-0.1791 -0.4,-0.4 v -7.2 c 0,-0.2209 0.179,-0.4 0.4,-0.4 h 3.6 v 3.6 c 0,0.2209 0.179,0.4 0.4,0.4 h 3.6 v 3.6 c 0,0.2209 0.179,0.4 0.4,0.4 h 3.2 c 0.221,0 0.4,0.1791 0.4,0.4 v 3.2 c 0,0.2209 0.179,0.4 0.4,0.4 h 3.2 c 0.221,0 0.4,0.1791 0.4,0.4 v 3.2 c 0,0.2209 -0.179,0.4 -0.4,0.4 h -7.2 c -0.221,0 -0.4,0.179 -0.4,0.4 v 7.2 c 0,0.221 -0.179,0.4 -0.4,0.4 h -3.2 c -0.221,0 -0.4,0.179 -0.4,0.4 v 3.2 c 0,0.221 0.179,0.4 0.4,0.4 h 3.2 c 0.221,0 0.4,0.179 0.4,0.4 v 3.2 c 0,0.221 -0.179,0.4 -0.4,0.4 h -15.2 c -0.221,0 -0.4,0.179 -0.4,0.4 v 7.6 z m -48,0 H 52 v -4 h 3.6 c 0.2209,0 0.4,0.179 0.4,0.4 v 3.6 z m -20,0 H 24.4 c -0.2209,0 -0.4,-0.179 -0.4,-0.4 v -11.2 c 0,-0.221 0.1791,-0.4 0.4,-0.4 h 11.2 c 0.2209,0 0.4,0.179 0.4,0.4 v 11.2 c 0,0.221 -0.1791,0.4 -0.4,0.4 z m 92,-8 h -3.2 c -0.221,0 -0.4,-0.179 -0.4,-0.4 v -7.2 c 0,-0.221 0.179,-0.4 0.4,-0.4 h 7.2 c 0.221,0 0.4,0.179 0.4,0.4 v 3.2 c 0,0.221 -0.179,0.4 -0.4,0.4 h -3.2 c -0.221,0 -0.4,0.179 -0.4,0.4 V 116 Z M 112,111.6 v -11.2 c 0,-0.221 -0.179,-0.4 -0.4,-0.4 h -11.2 c -0.221,0 -0.4,0.179 -0.4,0.4 v 11.2 c 0,0.221 0.179,0.4 0.4,0.4 h 11.2 c 0.221,0 0.4,-0.179 0.4,-0.4 z m -4.4,-3.6 h -3.2 c -0.221,0 -0.4,-0.179 -0.4,-0.4 v -3.2 c 0,-0.221 0.179,-0.4 0.4,-0.4 h 3.2 c 0.221,0 0.4,0.179 0.4,0.4 v 3.2 c 0,0.221 -0.179,0.4 -0.4,0.4 z m -16,-4 H 84.4 C 84.1791,104 84,103.821 84,103.6 V 96.4 C 84,96.1791 84.1791,96 84.4,96 H 92 v 8 z m -40,0 h -3.2 c -0.2209,0 -0.4,-0.179 -0.4,-0.4 v -3.2 C 48,100.179 47.8209,100 47.6,100 H 36.4 C 36.1791,100 36,99.8209 36,99.6 V 96 h 7.6 C 43.8209,96 44,95.8209 44,95.6 V 92.4 C 44,92.1791 43.8209,92 43.6,92 H 36.4 C 36.1791,92 36,92.1791 36,92.4 V 96 H 32 V 84.4 C 32,84.1791 31.8209,84 31.6,84 H 24.4 C 24.1791,84 24,84.1791 24,84.4 v 3.2 c 0,0.2209 0.1791,0.4 0.4,0.4 h 3.2 c 0.2209,0 0.4,0.1791 0.4,0.4 v 3.2 C 28,91.8209 27.8209,92 27.6,92 H 24.4 C 24.1791,92 24,92.1791 24,92.4 v 3.2 c 0,0.2209 0.1791,0.4 0.4,0.4 H 32 v 3.6 c 0,0.2209 -0.1791,0.4 -0.4,0.4 H 16.4 C 16.1791,100 16,99.8209 16,99.6 V 84.4 C 16,84.1791 16.1791,84 16.4,84 h 3.2 C 19.8209,84 20,83.8209 20,83.6 V 80 h 3.6 C 23.8209,80 24,79.8209 24,79.6 V 72.4 C 24,72.1791 24.1791,72 24.4,72 h 3.2 c 0.2209,0 0.4,0.1791 0.4,0.4 v 7.2 c 0,0.2209 0.1791,0.4 0.4,0.4 h 15.2 c 0.2209,0 0.4,0.1791 0.4,0.4 v 3.2 C 44,83.8209 43.8209,84 43.6,84 H 36.4 C 36.1791,84 36,84.1791 36,84.4 v 3.2 c 0,0.2209 0.1791,0.4 0.4,0.4 h 11.2 c 0.2209,0 0.4,0.1791 0.4,0.4 v 7.2 c 0,0.2209 0.1791,0.4 0.4,0.4 H 52 v 7.6 c 0,0.221 -0.1791,0.4 -0.4,0.4 z M 76,99.6 V 96.4 C 76,96.1791 75.8209,96 75.6,96 H 72.4 C 72.1791,96 72,96.1791 72,96.4 v 3.2 c 0,0.2209 0.1791,0.4 0.4,0.4 h 3.2 c 0.2209,0 0.4,-0.1791 0.4,-0.4 z M 63.6,100 H 56.4 C 56.1791,100 56,99.8209 56,99.6 V 96 h 3.6 C 59.8209,96 60,95.8209 60,95.6 V 92 h 4 v 8 z m 32,-4 H 92 V 88.4 C 92,88.1791 91.8209,88 91.6,88 H 88 v -4 h 3.6 C 91.8209,84 92,83.8209 92,83.6 V 76.4 C 92,76.1791 91.8209,76 91.6,76 H 84.4 C 84.1791,76 84,75.8209 84,75.6 V 72 h 3.6 C 87.8209,72 88,71.8209 88,71.6 V 68 h 3.6 C 91.8209,68 92,67.8209 92,67.6 V 64.4 C 92,64.1791 92.1791,64 92.4,64 h 3.2 c 0.2209,0 0.4,0.1791 0.4,0.4 v 7.2 c 0,0.2209 0.1791,0.4 0.4,0.4 h 7.2 c 0.221,0 0.4,-0.1791 0.4,-0.4 v -7.2 c 0,-0.2209 -0.179,-0.4 -0.4,-0.4 h -3.2 c -0.221,0 -0.4,-0.1791 -0.4,-0.4 v -3.2 c 0,-0.2209 0.179,-0.4 0.4,-0.4 h 7.2 c 0.221,0 0.4,-0.1791 0.4,-0.4 V 52 h 7.6 c 0.221,0 0.4,0.1791 0.4,0.4 V 60 h -3.6 c -0.221,0 -0.4,0.1791 -0.4,0.4 v 7.2 c 0,0.2209 0.179,0.4 0.4,0.4 h 15.2 c 0.221,0 0.4,-0.1791 0.4,-0.4 v -7.2 c 0,-0.2209 0.179,-0.4 0.4,-0.4 h 3.2 c 0.221,0 0.4,0.1791 0.4,0.4 v 19.2 c 0,0.2209 -0.179,0.4 -0.4,0.4 h -3.2 c -0.221,0 -0.4,-0.1791 -0.4,-0.4 v -7.2 c 0,-0.2209 -0.179,-0.4 -0.4,-0.4 h -3.2 c -0.221,0 -0.4,0.1791 -0.4,0.4 v 7.2 c 0,0.2209 -0.179,0.4 -0.4,0.4 H 120 v -7.6 c 0,-0.2209 -0.179,-0.4 -0.4,-0.4 h -3.2 c -0.221,0 -0.4,0.1791 -0.4,0.4 V 80 h -7.6 C 108.179,80 108,79.8209 108,79.6 V 76 h 3.6 c 0.221,0 0.4,-0.1791 0.4,-0.4 v -3.2 c 0,-0.2209 -0.179,-0.4 -0.4,-0.4 h -3.2 c -0.221,0 -0.4,0.1791 -0.4,0.4 V 76 H 96.4 C 96.1791,76 96,76.1791 96,76.4 v 3.2 c 0,0.2209 0.1791,0.4 0.4,0.4 h 7.2 c 0.221,0 0.4,0.1791 0.4,0.4 v 3.2 c 0,0.2209 -0.179,0.4 -0.4,0.4 H 96.4 C 96.1791,84 96,84.1791 96,84.4 V 96 Z m -40,0 H 52 V 92.4 C 52,92.1791 52.1791,92 52.4,92 H 56 v 4 z m 76,-4 h -3.2 C 128.179,92 128,91.8209 128,91.6 V 88 h 3.6 c 0.221,0 0.4,0.1791 0.4,0.4 v 3.2 c 0,0.2209 -0.179,0.4 -0.4,0.4 z m -64,0 H 64 v -4 h 4 v 4 z m -8,0 H 56 V 88.4 C 56,88.1791 56.1791,88 56.4,88 H 60 v 4 z m 68,-4 H 120 v -4 h 7.6 c 0.221,0 0.4,0.1791 0.4,0.4 V 88 Z m -56,0 H 68 V 84.4 C 68,84.1791 67.8209,84 67.6,84 H 64.4 C 64.1791,84 64,84.1791 64,84.4 V 88 H 60 V 84.4 C 60,84.1791 59.8209,84 59.6,84 H 56.4 C 56.1791,84 56,83.8209 56,83.6 V 80 h 7.6 C 63.8209,80 64,79.8209 64,79.6 V 76.4 C 64,76.1791 64.1791,76 64.4,76 h 3.2 c 0.2209,0 0.4,0.1791 0.4,0.4 v 3.2 c 0,0.2209 0.1791,0.4 0.4,0.4 h 3.2 c 0.2209,0 0.4,0.1791 0.4,0.4 v 7.2 c 0,0.2209 -0.1791,0.4 -0.4,0.4 z m 48,-4 H 116 v -4 h 4 v 4 z m -32,0 H 84.4 C 84.1791,84 84,83.8209 84,83.6 V 80.4 C 84,80.1791 84.1791,80 84.4,80 h 3.2 c 0.2209,0 0.4,0.1791 0.4,0.4 V 84 Z m -36,0 H 48.4 C 48.1791,84 48,83.8209 48,83.6 V 76 h 3.6 C 51.8209,76 52,75.8209 52,75.6 V 64 h 7.6 c 0.2209,0 0.4,0.1791 0.4,0.4 v 7.2 C 60,71.8209 59.8209,72 59.6,72 H 56.4 C 56.1791,72 56,72.1791 56,72.4 V 80 H 52.4 C 52.1791,80 52,80.1791 52,80.4 v 3.2 c 0,0.2209 -0.1791,0.4 -0.4,0.4 z m 28,-4 H 76.4 C 76.1791,80 76,79.8209 76,79.6 V 76.4 C 76,76.1791 75.8209,76 75.6,76 H 72.4 C 72.1791,76 72,75.8209 72,75.6 V 68.4 C 72,68.1791 72.1791,68 72.4,68 H 76 v 3.6 c 0,0.2209 0.1791,0.4 0.4,0.4 H 80 v 7.6 c 0,0.2209 -0.1791,0.4 -0.4,0.4 z m -60,0 H 16.4 C 16.1791,80 16,79.8209 16,79.6 V 68.4 C 16,68.1791 16.1791,68 16.4,68 H 20 v 12 z m 28,-4 H 36.4 C 36.1791,76 36,75.8209 36,75.6 V 72.4 C 36,72.1791 35.8209,72 35.6,72 H 32.4 C 32.1791,72 32,71.8209 32,71.6 V 64 h 4 v 3.6 c 0,0.2209 0.1791,0.4 0.4,0.4 H 40 v 3.6 c 0,0.2209 0.1791,0.4 0.4,0.4 h 3.2 C 43.8209,72 44,71.8209 44,71.6 V 68 h 3.6 c 0.2209,0 0.4,0.1791 0.4,0.4 V 76 Z m 36,-4 H 80 v -4 h 4 v 4 z m -16,0 H 64.4 C 64.1791,72 64,71.8209 64,71.6 V 68.4 C 64,68.1791 64.1791,68 64.4,68 h 3.2 c 0.2209,0 0.4,0.1791 0.4,0.4 v 3.2 c 0,0.2209 -0.1791,0.4 -0.4,0.4 z m 20,-4 H 84 V 52.4 C 84,52.1791 83.8209,52 83.6,52 H 80 V 48.4 C 80,48.1791 79.8209,48 79.6,48 H 76.4 C 76.1791,48 76,48.1791 76,48.4 v 3.2 c 0,0.2209 0.1791,0.4 0.4,0.4 H 80 v 7.6 C 80,59.8209 79.8209,60 79.6,60 H 72.4 C 72.1791,60 72,59.8209 72,59.6 V 56.4 C 72,56.1791 71.8209,56 71.6,56 H 68 v -4 h 3.6 C 71.8209,52 72,51.8209 72,51.6 V 48.4 C 72,48.1791 71.8209,48 71.6,48 H 68.4 C 68.1791,48 68,48.1791 68,48.4 V 52 H 64.4 C 64.1791,52 64,51.8209 64,51.6 V 40 h 3.6 c 0.2209,0 0.4,0.1791 0.4,0.4 v 3.2 c 0,0.2209 0.1791,0.4 0.4,0.4 h 3.2 C 71.8209,44 72,43.8209 72,43.6 V 36.4 C 72,36.1791 72.1791,36 72.4,36 H 76 v 7.6 c 0,0.2209 0.1791,0.4 0.4,0.4 h 3.2 C 79.8209,44 80,43.8209 80,43.6 V 40.4 C 80,40.1791 80.1791,40 80.4,40 H 84 v 7.6 c 0,0.2209 0.1791,0.4 0.4,0.4 h 3.2 c 0.2209,0 0.4,0.1791 0.4,0.4 v 3.2 c 0,0.2209 0.1791,0.4 0.4,0.4 h 3.2 c 0.2209,0 0.4,0.1791 0.4,0.4 v 7.2 C 92,59.8209 91.8209,60 91.6,60 H 88.4 C 88.1791,60 88,60.1791 88,60.4 V 68 Z m -8,0 H 76 V 64.4 C 76,64.1791 76.1791,64 76.4,64 h 3.2 c 0.2209,0 0.4,0.1791 0.4,0.4 V 68 Z m -36,0 H 40 v -4 h 3.6 c 0.2209,0 0.4,0.1791 0.4,0.4 V 68 Z m -20,0 H 20 V 64.4 C 20,64.1791 19.8209,64 19.6,64 H 16.4 C 16.1791,64 16,63.8209 16,63.6 V 60.4 C 16,60.1791 16.1791,60 16.4,60 H 32 v 4 H 24.4 C 24.1791,64 24,64.1791 24,64.4 v 3.2 c 0,0.2209 -0.1791,0.4 -0.4,0.4 z m 96,-4 h -3.2 C 116.179,64 116,63.8209 116,63.6 V 60 h 4 v 3.6 c 0,0.2209 -0.179,0.4 -0.4,0.4 z m -68,0 H 48.4 C 48.1791,64 48,63.8209 48,63.6 V 60.4 C 48,60.1791 48.1791,60 48.4,60 H 52 v 4 z m -12,0 H 36 v -4 h 4 v 4 z m 84,-4 H 120 v -7.6 c 0,-0.2209 0.179,-0.4 0.4,-0.4 h 7.6 v 3.6 c 0,0.2209 -0.179,0.4 -0.4,0.4 h -3.2 c -0.221,0 -0.4,0.1791 -0.4,0.4 v 3.2 c 0,0.2209 -0.179,0.4 -0.4,0.4 z m -56,0 H 64.4 C 64.1791,60 64,59.8209 64,59.6 V 56.4 C 64,56.1791 64.1791,56 64.4,56 H 68 v 3.6 c 0,0.2209 -0.1791,0.4 -0.4,0.4 z m -12,0 H 52 v -4 h 4 v 3.6 c 0,0.2209 -0.1791,0.4 -0.4,0.4 z m -12,0 H 40 v -4 h 4 v 3.6 c 0,0.2209 -0.1791,0.4 -0.4,0.4 z m -8,0 H 32 v -4 h 4 v 4 z m 68,-4 h -3.2 c -0.221,0 -0.4,-0.1791 -0.4,-0.4 v -3.2 c 0,-0.2209 0.179,-0.4 0.4,-0.4 h 3.6 v 3.6 c 0,0.2209 -0.179,0.4 -0.4,0.4 z m -44,0 H 56 v -4 h 3.6 c 0.2209,0 0.4,0.1791 0.4,0.4 v 3.2 c 0,0.2209 -0.1791,0.4 -0.4,0.4 z m -8,0 H 44 v -4 h 8 v 4 z m -12,0 H 36 v -4 h 4 v 4 z m -8,0 H 28.4 C 28.1791,56 28,55.8209 28,55.6 V 48.4 C 28,48.1791 28.1791,48 28.4,48 h 7.2 c 0.2209,0 0.4,0.1791 0.4,0.4 V 52 H 32.4 C 32.1791,52 32,52.1791 32,52.4 V 56 Z m -8,0 H 20.4 C 20.1791,56 20,55.8209 20,55.6 V 52.4 C 20,52.1791 19.8209,52 19.6,52 H 16.4 C 16.1791,52 16,51.8209 16,51.6 V 48.4 C 16,48.1791 16.1791,48 16.4,48 h 7.2 c 0.2209,0 0.4,0.1791 0.4,0.4 v 7.2 c 0,0.2209 -0.1791,0.4 -0.4,0.4 z m 108,-4 H 128 v -3.6 c 0,-0.2209 0.179,-0.4 0.4,-0.4 h 3.2 c 0.221,0 0.4,0.1791 0.4,0.4 v 3.2 c 0,0.2209 -0.179,0.4 -0.4,0.4 z m -24,0 H 104 v -3.6 c 0,-0.2209 0.179,-0.4 0.4,-0.4 h 3.2 c 0.221,0 0.4,0.1791 0.4,0.4 V 52 Z m -52,0 H 52 V 48.4 C 52,48.1791 51.8209,48 51.6,48 H 48.4 C 48.1791,48 48,47.8209 48,47.6 V 40.4 C 48,40.1791 48.1791,40 48.4,40 H 52 v 3.6 c 0,0.2209 0.1791,0.4 0.4,0.4 H 56 v 8 z m -12,0 H 40 V 48.4 C 40,48.1791 40.1791,48 40.4,48 h 3.2 c 0.2209,0 0.4,0.1791 0.4,0.4 V 52 Z m 52,-4 H 92.4 C 92.1791,48 92,47.8209 92,47.6 V 44 h 4 v 3.6 c 0,0.2209 -0.1791,0.4 -0.4,0.4 z m 36,-4 H 104.4 C 104.179,44 104,43.8209 104,43.6 V 16.4 c 0,-0.2209 0.179,-0.4 0.4,-0.4 h 27.2 c 0.221,0 0.4,0.1791 0.4,0.4 v 27.2 c 0,0.2209 -0.179,0.4 -0.4,0.4 z m -32,0 H 96 V 40.4 C 96,40.1791 96.1791,40 96.4,40 h 3.2 c 0.2209,0 0.4,0.1791 0.4,0.4 v 3.2 c 0,0.2209 -0.1791,0.4 -0.4,0.4 z m -8,0 H 88.4 C 88.1791,44 88,43.8209 88,43.6 V 40 h 3.6 c 0.2209,0 0.4,0.1791 0.4,0.4 V 44 Z m -32,0 H 56 v -4 h 4 v 3.6 c 0,0.2209 -0.1791,0.4 -0.4,0.4 z m -16,0 H 16.4 C 16.1791,44 16,43.8209 16,43.6 V 16.4 C 16,16.1791 16.1791,16 16.4,16 h 27.2 c 0.2209,0 0.4,0.1791 0.4,0.4 V 43.6 C 44,43.8209 43.8209,44 43.6,44 Z M 128,39.6 V 20.4 c 0,-0.2209 -0.179,-0.4 -0.4,-0.4 h -19.2 c -0.221,0 -0.4,0.1791 -0.4,0.4 v 19.2 c 0,0.2209 0.179,0.4 0.4,0.4 h 19.2 c 0.221,0 0.4,-0.1791 0.4,-0.4 z M 87.6,40 H 84 v -4 h 4 v 4 z m -24,0 H 60 V 36.4 C 60,36.1791 59.8209,36 59.6,36 H 56 v -8 h 3.6 C 59.8209,28 60,27.8209 60,27.6 V 20.4 C 60,20.1791 59.8209,20 59.6,20 H 48.4 C 48.1791,20 48,19.8209 48,19.6 V 16.4 C 48,16.1791 48.1791,16 48.4,16 h 15.2 c 0.2209,0 0.4,0.1791 0.4,0.4 v 3.2 c 0,0.2209 0.1791,0.4 0.4,0.4 h 11.2 c 0.2209,0 0.4,0.1791 0.4,0.4 v 3.2 c 0,0.2209 0.1791,0.4 0.4,0.4 h 7.2 c 0.2209,0 0.4,0.1791 0.4,0.4 v 3.2 C 84,27.8209 83.8209,28 83.6,28 H 72.4 C 72.1791,28 72,28.1791 72,28.4 v 3.2 C 72,31.8209 71.8209,32 71.6,32 H 68 V 24.4 C 68,24.1791 67.8209,24 67.6,24 H 64.4 C 64.1791,24 64,24.1791 64,24.4 v 7.2 c 0,0.2209 0.1791,0.4 0.4,0.4 H 68 v 3.6 C 68,35.8209 67.8209,36 67.6,36 H 64.4 C 64.1791,36 64,36.1791 64,36.4 V 40 Z m -8,0 H 52 V 36.4 C 52,36.1791 52.1791,36 52.4,36 H 56 v 4 z M 40,39.6 V 20.4 C 40,20.1791 39.8209,20 39.6,20 H 20.4 C 20.1791,20 20,20.1791 20,20.4 v 19.2 c 0,0.2209 0.1791,0.4 0.4,0.4 H 39.6 C 39.8209,40 40,39.8209 40,39.6 Z M 123.6,36 H 112.4 C 112.179,36 112,35.8209 112,35.6 V 24.4 c 0,-0.2209 0.179,-0.4 0.4,-0.4 h 11.2 c 0.221,0 0.4,0.1791 0.4,0.4 v 11.2 c 0,0.2209 -0.179,0.4 -0.4,0.4 z m -32,0 H 88 V 32.4 C 88,32.1791 88.1791,32 88.4,32 h 3.2 c 0.2209,0 0.4,0.1791 0.4,0.4 v 3.2 c 0,0.2209 -0.1791,0.4 -0.4,0.4 z m -8,0 H 76 V 32.4 C 76,32.1791 76.1791,32 76.4,32 h 7.2 c 0.2209,0 0.4,0.1791 0.4,0.4 V 36 Z m -48,0 H 24.4 C 24.1791,36 24,35.8209 24,35.6 V 24.4 C 24,24.1791 24.1791,24 24.4,24 h 11.2 c 0.2209,0 0.4,0.1791 0.4,0.4 v 11.2 c 0,0.2209 -0.1791,0.4 -0.4,0.4 z m 20,-8 H 52.4 C 52.1791,28 52,27.8209 52,27.6 V 24.4 C 52,24.1791 52.1791,24 52.4,24 h 3.2 c 0.2209,0 0.4,0.1791 0.4,0.4 V 28 Z m 40,-4 H 92.4 C 92.1791,24 92,23.8209 92,23.6 V 20 h 4 v 3.6 c 0,0.2209 -0.1791,0.4 -0.4,0.4 z m 4,-4 H 96 V 16.4 C 96,16.1791 96.1791,16 96.4,16 h 3.2 c 0.2209,0 0.4,0.1791 0.4,0.4 v 3.2 c 0,0.2209 -0.1791,0.4 -0.4,0.4 z m -8,0 H 88.4 C 88.1791,20 88,19.8209 88,19.6 V 16.4 C 88,16.1791 88.1791,16 88.4,16 h 3.2 c 0.2209,0 0.4,0.1791 0.4,0.4 V 20 Z"
           id="path1" />
      </g>
    </g>
  </g>
</svg>
